# File created by Blade
# Date/Time:  Tue Sep 30 19:12:01 2014
#---------------------------------------------------------
:version 1.10
:name HOM
:units
  mass 1.0
  length 1.000000
  angle deg
:documentation
     Acclaim Skeleton File
:root
   axis xyz
   order TX TY TZ RX RY RZ
   position 0.000000 0.000000 0.000000
   orientation 0 0 0
:bonedata
   begin
      id 1
      name Spine_dum
      direction 0.000000 1.000000 0.000000
      length 7.508948
      axis 0.0 0.0 0.0 xyz
   end
   begin
      id 2
      name LeftUpLeg_dum
      direction 1.000000 0.000000 0.000000
      length 3.000560
      axis 0.0 0.0 0.0 xyz
   end
   begin
      id 3
      name RightUpLeg_dum
      direction -1.000000 0.000000 0.000000
      length 3.000560
      axis 0.0 0.0 0.0 xyz
   end
   begin
      id 4
      name Spine
      direction 0.000000 1.000000 0.000000
      length 0.000000
      axis 0.0 0.0 0.0 xyz
      dof rx ry rz
   end
   begin
      id 5
      name Spine_dum1
      direction 0.000000 1.000000 0.000000
      length 13.861154
      axis 0.0 0.0 0.0 xyz
   end
   begin
      id 6
      name Spine_dum2
      direction 0.000000 1.000000 0.000000
      length 8.204781
      axis 0.0 0.0 0.0 xyz
   end
   begin
      id 7
      name Spine_dum3
      direction 0.000000 1.000000 0.000000
      length 8.204781
      axis 0.0 0.0 0.0 xyz
   end
   begin
      id 8
      name Head
      direction 0.000000 1.000000 0.000000
      length 4.527550
      axis 0.0 0.0 0.0 xyz
      dof rx ry rz
   end
   begin
      id 9
      name LeftShoulder
      direction 1.000000 0.000000 0.000000
      length 6.635956
      axis 0.0 0.0 -90.0 xyz
      dof rx ry rz
   end
   begin
      id 10
      name LeftArm
      direction 1.000000 0.000000 0.000000
      length 10.274218
      axis 0.0 0.0 -90.0 xyz
      dof rx ry rz
   end
   begin
      id 11
      name LeftForeArm
      direction 1.000000 0.000000 0.000000
      length 8.522147
      axis 0.0 0.0 -90.0 xyz
      dof ry rz rx
   end
   begin
      id 12
      name LeftHand
      direction 0.000000 0.000000 0.000000
      length 0.000000
      axis 0.0 0.0 -90.0 xyz
      dof rx ry rz
   end
   begin
      id 13
      name LeftHand_dum1
      direction 0.000000 0.000000 0.000000
      length 0.000000
      axis 0.0 0.0 -90.0 xyz
   end
   begin
      id 14
      name LeftHand_dum2
      direction 1.000000 0.000000 0.000000
      length 3.937000
      axis 0.0 0.0 -90.0 xyz
   end
   begin
      id 15
      name LeftHandThumb1
      direction 0.000000 0.000000 1.000000
      length 3.937000
      axis 0.0 0.0 -90.0 xyz
      dof rx rz ry
   end
   begin
      id 16
      name RightShoulder
      direction -1.000000 0.000000 0.000000
      length 6.635956
      axis 0.0 0.0 90.0 xyz
      dof rx ry rz
   end
   begin
      id 17
      name RightArm
      direction -1.000000 0.000000 0.000000
      length 10.274218
      axis 0.0 0.0 90.0 xyz
      dof rx ry rz
   end
   begin
      id 18
      name RightForeArm
      direction -1.000000 0.000000 0.000000
      length 8.522147
      axis 0.0 0.0 90.0 xyz
      dof ry rz rx
   end
   begin
      id 19
      name RightHand
      direction 0.000000 0.000000 0.000000
      length 0.000000
      axis 0.0 0.0 90.0 xyz
      dof rx ry rz
   end
   begin
      id 20
      name RightHand_dum1
      direction 0.000000 0.000000 0.000000
      length 0.000000
      axis 0.0 0.0 90.0 xyz
   end
   begin
      id 21
      name RightHand_dum2
      direction -1.000000 0.000000 0.000000
      length 3.937000
      axis 0.0 0.0 90.0 xyz
   end
   begin
      id 22
      name RightHandThumb1
      direction 0.000000 0.000000 1.000000
      length 3.937000
      axis 0.0 0.0 90.0 xyz
      dof rx rz ry
   end
   begin
      id 23
      name LeftUpLeg
      direction 0.000000 -1.000000 0.000000
      length 16.490845
      axis 0.0 0.0 0.0 xyz
      dof rx ry rz
   end
   begin
      id 24
      name LeftLeg
      direction 0.000000 -1.000000 0.000000
      length 14.556576
      axis 0.0 0.0 0.0 xyz
      dof rx ry rz
   end
   begin
      id 25
      name LeftFoot
      direction 0.000000 -0.258819 0.965926
      length 4.831116
      axis 15.0 0.0 0.0 xyz
      dof rx ry rz
   end
   begin
      id 26
      name LeftToeBase
      direction 0.000000 0.000000 1.000000
      length 2.952750
      axis 0.0 0.0 0.0 xyz
      dof rx ry rz
   end
   begin
      id 27
      name RightUpLeg
      direction 0.000000 -1.000000 0.000000
      length 16.490845
      axis 0.0 0.0 0.0 xyz
      dof rx ry rz
   end
   begin
      id 28
      name RightLeg
      direction 0.000000 -1.000000 0.000000
      length 14.556576
      axis 0.0 0.0 0.0 xyz
      dof rx ry rz
   end
   begin
      id 29
      name RightFoot
      direction 0.000000 -0.258819 0.965926
      length 4.831116
      axis 15.0 0.0 0.0 xyz
      dof rx ry rz
   end
   begin
      id 30
      name RightToeBase
      direction 0.000000 0.000000 1.000000
      length 2.952750
      axis 0.0 0.0 0.0 xyz
      dof rx ry rz
   end
:hierarchy
   begin
      root Spine_dum LeftUpLeg_dum RightUpLeg_dum
      Spine_dum Spine
      LeftUpLeg_dum LeftUpLeg
      RightUpLeg_dum RightUpLeg
      Spine Spine_dum1 Spine_dum2 Spine_dum3
      Spine_dum1 Head
      Spine_dum2 LeftShoulder
      Spine_dum3 RightShoulder
      LeftShoulder LeftArm
      LeftArm LeftForeArm
      LeftForeArm LeftHand
      LeftHand LeftHand_dum1 LeftHand_dum2
      LeftHand_dum1 LeftHandThumb1
      RightShoulder RightArm
      RightArm RightForeArm
      RightForeArm RightHand
      RightHand RightHand_dum1 RightHand_dum2
      RightHand_dum1 RightHandThumb1
      LeftUpLeg LeftLeg
      LeftLeg LeftFoot
      LeftFoot LeftToeBase
      RightUpLeg RightLeg
      RightLeg RightFoot
      RightFoot RightToeBase
   end

# File created by Blade
# Date/Time:  Thu Sep 25 17:14:50 2014
# Frame Rate: 120.000 fps
#------------------------------------------------------
:FULLY-SPECIFIED
:DEGREES
91
root 0.015025 32.841316 -2.509795 13.256042 0.607202 -0.937883
Spine -10.741711 4.383469 -0.157344
Head -6.256853 -9.535999 10.743193
LeftShoulder -12.727033 23.590260 22.129188
LeftArm 25.250776 -16.849002 -41.282174
LeftForeArm 6.431001 -0.000000 14.397885
LeftHand -31.038388 -0.000000 -2.252025
LeftHandThumb1 -26.253704 0.000000 33.147579
RightShoulder -19.329399 10.355535 -33.867984
RightArm -3.219391 2.887354 43.461232
RightForeArm -27.355058 -0.000000 16.770876
RightHand -9.599696 -0.000000 5.957948
RightHandThumb1 -24.326973 -0.000000 -32.862282
LeftUpLeg -11.410156 0.247654 2.725043
LeftLeg 8.762692 -0.000000 -0.000000
LeftFoot -17.565387 12.427741 -22.035466
LeftToeBase 3.237737 -0.000000 -0.000000
RightUpLeg -11.811222 -3.794517 0.263849
RightLeg 7.457559 -0.000000 -0.000000
RightFoot -11.784862 -3.288669 -2.749594
RightToeBase -0.110447 -0.000000 0.000000
92
root 0.037391 32.840487 -2.511426 13.235078 0.344404 -0.908171
Spine -10.621636 4.435976 -0.131002
Head -6.199001 -9.595285 10.553791
LeftShoulder -12.739391 23.733808 21.919761
LeftArm 25.552646 -16.400266 -42.178090
LeftForeArm 6.572886 -0.000000 14.467113
LeftHand -30.753529 0.000000 -2.401443
LeftHandThumb1 -26.253704 0.000000 33.147579
RightShoulder -19.272276 10.363915 -33.717644
RightArm -3.204714 2.508441 44.221550
RightForeArm -27.606101 -0.000000 16.843998
RightHand -9.487953 -0.000000 5.918597
RightHandThumb1 -24.326973 -0.000000 -32.862282
LeftUpLeg -11.968071 0.187547 2.626396
LeftLeg 10.051255 -0.000000 -0.000000
LeftFoot -18.067791 12.559793 -22.283372
LeftToeBase 3.127532 -0.000000 -0.000000
RightUpLeg -11.968323 -3.783850 0.180911
RightLeg 7.768261 -0.000000 -0.000000
RightFoot -11.883896 -3.135239 -2.859839
RightToeBase -0.143910 -0.000000 0.000000
93
root 0.058142 32.837644 -2.509152 13.167408 0.082069 -0.903024
Spine -10.444686 4.516015 -0.087936
Head -6.137088 -9.659414 10.409706
LeftShoulder -12.677079 23.749797 21.762126
LeftArm 25.754475 -15.747436 -42.982380
LeftForeArm 6.288874 -0.000000 14.603003
LeftHand -31.179822 -0.000000 -2.604489
LeftHandThumb1 -26.253704 0.000000 33.147579
RightShoulder -19.206597 10.400873 -33.504360
RightArm -3.189606 2.126830 44.876149
RightForeArm -27.576647 -0.000000 16.836681
RightHand -9.340874 -0.000000 6.254789
RightHandThumb1 -24.326973 -0.000000 -32.862282
LeftUpLeg -12.527271 0.251465 2.545067
LeftLeg 11.452460 -0.000000 -0.000000
LeftFoot -18.543804 12.544141 -22.559599
LeftToeBase 2.873272 -0.000000 -0.000000
RightUpLeg -12.029540 -3.761950 0.106048
RightLeg 7.991670 -0.000000 -0.000000
RightFoot -11.973925 -2.905718 -2.921083
RightToeBase -0.139101 -0.000000 0.000000
94
root 0.083655 32.833666 -2.509686 13.122166 -0.204241 -0.912648
Spine -10.286636 4.556695 0.000097
Head -6.080971 -9.641533 10.297481
LeftShoulder -12.643487 23.746555 21.598501
LeftArm 25.907603 -14.932130 -43.763444
LeftForeArm 6.000601 0.000000 14.636835
LeftHand -31.371038 0.000000 -2.333497
LeftHandThumb1 -26.253704 0.000000 33.147579
RightShoulder -19.123347 10.436665 -33.329594
RightArm -3.145642 1.311668 45.568546
RightForeArm -27.207497 -0.000000 16.927042
RightHand -9.466927 -0.000000 6.277415
RightHandThumb1 -24.326973 -0.000000 -32.862282
LeftUpLeg -13.142708 0.314166 2.469291
LeftLeg 12.919001 -0.000000 -0.000000
LeftFoot -18.992193 12.537959 -22.838668
LeftToeBase 2.538976 -0.000000 -0.000000
RightUpLeg -12.129996 -3.663808 0.025914
RightLeg 8.235971 -0.000000 -0.000000
RightFoot -12.067875 -2.732592 -2.945011
RightToeBase -0.127934 -0.000000 0.000000
95
root 0.099971 32.830295 -2.510094 13.061490 -0.495410 -0.982592
Spine -10.108891 4.613205 0.129251
Head -6.038674 -9.653326 10.138345
LeftShoulder -12.624867 23.788040 21.382104
LeftArm 26.065806 -14.118819 -44.443860
LeftForeArm 6.013955 -0.000000 14.649912
LeftHand -31.075202 -0.000000 -2.534651
LeftHandThumb1 -26.253704 0.000000 33.147579
RightShoulder -19.067203 10.353902 -33.107464
RightArm -2.946592 0.808295 46.318503
RightForeArm -27.414139 -0.000000 16.877080
RightHand -9.480205 -0.000000 6.438812
RightHandThumb1 -24.326973 -0.000000 -32.862282
LeftUpLeg -13.764564 0.470991 2.456079
LeftLeg 14.431669 -0.000000 -0.000000
LeftFoot -19.426932 12.473680 -23.184141
LeftToeBase 2.235356 -0.000000 -0.000000
RightUpLeg -12.018027 -3.284849 -0.056826
RightLeg 8.070099 -0.000000 -0.000000
RightFoot -11.969808 -2.546460 -2.615521
RightToeBase -0.246700 -0.000000 0.000000
96
root 0.137409 32.825847 -2.505598 12.986104 -0.808993 -0.954401
Spine -9.931012 4.640404 0.200218
Head -6.007385 -9.619657 9.944012
LeftShoulder -12.653247 23.893997 21.072049
LeftArm 26.316044 -13.346369 -45.095665
LeftForeArm 5.917511 -0.000000 14.652710
LeftHand -30.938318 -0.000000 -3.019841
LeftHandThumb1 -26.253704 0.000000 33.147579
RightShoulder -19.011675 10.326656 -32.883011
RightArm -2.701040 0.156095 47.006839
RightForeArm -27.170769 0.000000 16.793261
RightHand -9.540130 0.000000 6.345438
RightHandThumb1 -24.326973 -0.000000 -32.862282
LeftUpLeg -14.350133 0.583434 2.302074
LeftLeg 15.909799 -0.000000 -0.000000
LeftFoot -19.817495 12.484498 -23.589182
LeftToeBase 1.863029 -0.000000 -0.000000
RightUpLeg -12.085389 -3.238612 -0.195097
RightLeg 8.312147 -0.000000 -0.000000
RightFoot -12.067204 -2.284937 -2.621348
RightToeBase -0.307326 -0.000000 0.000000
97
root 0.176234 32.821304 -2.502066 12.892905 -1.108499 -0.903825
Spine -9.724108 4.677595 0.235723
Head -5.966293 -9.707573 9.769124
LeftShoulder -12.656017 24.021429 20.761205
LeftArm 26.636478 -12.470653 -45.686054
LeftForeArm 5.974521 -0.000000 14.589341
LeftHand -30.838355 -0.000000 -3.400546
LeftHandThumb1 -26.253704 0.000000 33.147579
RightShoulder -19.002742 10.278972 -32.682360
RightArm -2.436947 -0.435215 47.787442
RightForeArm -26.859381 -0.000000 16.688948
RightHand -9.705382 0.000000 5.905376
RightHandThumb1 -24.326973 -0.000000 -32.862282
LeftUpLeg -14.969563 0.677032 2.138484
LeftLeg 17.490676 -0.000000 -0.000000
LeftFoot -20.155175 12.447466 -24.008655
LeftToeBase 1.536183 -0.000000 -0.000000
RightUpLeg -12.186646 -3.278118 -0.337370
RightLeg 8.660095 -0.000000 -0.000000
RightFoot -12.216165 -2.036474 -2.754981
RightToeBase -0.369539 -0.000000 0.000000
98
root 0.222488 32.814856 -2.495725 12.754058 -1.428106 -0.814145
Spine -9.475179 4.681539 0.238165
Head -5.943319 -9.793516 9.686134
LeftShoulder -12.655088 24.008457 20.448325
LeftArm 26.836154 -11.509944 -46.190008
LeftForeArm 5.791448 -0.000000 14.463627
LeftHand -30.267555 -0.000000 -3.618611
LeftHandThumb1 -26.253704 0.000000 33.147579
RightShoulder -18.930574 10.266040 -32.548669
RightArm -2.316176 -0.859390 48.656424
RightForeArm -26.471602 -0.000000 16.693692
RightHand -9.743829 -0.000000 6.213304
RightHandThumb1 -24.326973 -0.000000 -32.862282
LeftUpLeg -15.581192 0.913976 1.908766
LeftLeg 19.142176 -0.000000 -0.000000
LeftFoot -20.377766 12.332358 -24.279370
LeftToeBase 1.171630 -0.000000 -0.000000
RightUpLeg -12.292961 -3.447476 -0.520150
RightLeg 9.108805 -0.000000 -0.000000
RightFoot -12.419129 -1.639283 -2.871952
RightToeBase -0.493851 -0.000000 0.000000
99
root 0.273959 32.811391 -2.495024 12.639811 -1.831633 -0.770780
Spine -9.245631 4.785763 0.299589
Head -5.910034 -9.911641 9.404382
LeftShoulder -12.658690 24.064721 20.114501
LeftArm 27.120247 -10.575273 -46.810689
LeftForeArm 5.796294 -0.000000 14.382327
LeftHand -30.224446 -0.000000 -3.466594
LeftHandThumb1 -26.253704 0.000000 33.147579
RightShoulder -18.805166 10.370656 -32.395657
RightArm -2.328501 -1.260202 49.438523
RightForeArm -26.160741 -0.000000 16.742821
RightHand -9.723765 -0.000000 6.118294
RightHandThumb1 -24.326973 -0.000000 -32.862282
LeftUpLeg -16.231533 1.255037 1.715906
LeftLeg 20.822951 -0.000000 -0.000000
LeftFoot -20.502885 12.090570 -24.598335
LeftToeBase 0.817209 -0.000000 -0.000000
RightUpLeg -12.358670 -3.139689 -0.732285
RightLeg 9.387593 -0.000000 -0.000000
RightFoot -12.505581 -1.619126 -2.875604
RightToeBase -0.467164 -0.000000 0.000000
100
root 0.323742 32.807268 -2.490783 12.539652 -2.172868 -0.743493
Spine -9.046234 4.839872 0.386769
Head -5.857751 -10.026790 9.133754
LeftShoulder -12.637543 24.030718 19.843765
LeftArm 27.343012 -9.588933 -47.509976
LeftForeArm 5.639377 0.000000 14.386054
LeftHand -30.698385 0.000000 -3.230308
LeftHandThumb1 -26.253704 0.000000 33.147579
RightShoulder -18.708698 10.454278 -32.269978
RightArm -2.345435 -1.844295 50.237819
RightForeArm -25.684628 0.000000 16.786883
RightHand -9.660135 -0.000000 6.167050
RightHandThumb1 -24.326973 -0.000000 -32.862282
LeftUpLeg -16.893857 1.367449 1.590051
LeftLeg 22.500444 -0.000000 -0.000000
LeftFoot -20.617127 11.918476 -25.092683
LeftToeBase 0.255888 -0.000000 -0.000000
RightUpLeg -12.381523 -2.855308 -0.911417
RightLeg 9.571620 -0.000000 -0.000000
RightFoot -12.545871 -1.670915 -2.907442
RightToeBase -0.552588 -0.000000 0.000000
101
root 0.376204 32.804578 -2.483412 12.421099 -2.566256 -0.723795
Spine -8.836155 4.972758 0.456735
Head -5.812852 -10.164256 8.916944
LeftShoulder -12.599846 24.050735 19.533524
LeftArm 27.620858 -8.700733 -48.215635
LeftForeArm 5.396836 -0.000000 14.399612
LeftHand -30.716875 -0.000000 -3.011841
LeftHandThumb1 -26.253704 0.000000 33.147579
RightShoulder -18.618408 10.548726 -32.061490
RightArm -2.399136 -2.050644 50.950551
RightForeArm -25.480053 -0.000000 16.859100
RightHand -9.441409 -0.000000 6.526975
RightHandThumb1 -24.326973 -0.000000 -32.862282
LeftUpLeg -17.527094 1.659396 1.463939
LeftLeg 24.169078 -0.000000 -0.000000
LeftFoot -20.608322 11.508443 -25.526425
LeftToeBase -0.212215 -0.000000 0.000000
RightUpLeg -12.401919 -2.477239 -1.112954
RightLeg 9.806559 -0.000000 -0.000000
RightFoot -12.579422 -1.721259 -2.837942
RightToeBase -0.617200 -0.000000 0.000000
102
root 0.424294 32.799413 -2.469589 12.304537 -2.933168 -0.712657
Spine -8.660844 5.053318 0.513317
Head -5.750552 -10.343559 8.767558
LeftShoulder -12.568517 24.068592 19.293248
LeftArm 27.850430 -7.785865 -48.952332
LeftForeArm 4.861183 -0.000000 14.506857
LeftHand -30.950647 -0.000000 -2.979427
LeftHandThumb1 -26.253704 0.000000 33.147579
RightShoulder -18.542860 10.620678 -31.849427
RightArm -2.395656 -2.317000 51.705923
RightForeArm -25.496627 0.000000 16.867634
RightHand -9.161894 -0.000000 6.883595
RightHandThumb1 -24.326973 -0.000000 -32.862282
LeftUpLeg -18.135881 1.712696 1.412755
LeftLeg 25.815930 -0.000000 -0.000000
LeftFoot -20.622283 11.156660 -25.971631
LeftToeBase -0.629459 -0.000000 0.000000
RightUpLeg -12.409234 -2.233538 -1.274450
RightLeg 10.011457 -0.000000 -0.000000
RightFoot -12.657639 -1.665911 -2.837906
RightToeBase -0.648766 -0.000000 0.000000
103
root 0.483308 32.792263 -2.454770 12.171694 -3.340206 -0.656604
Spine -8.474039 5.108955 0.517258
Head -5.683285 -10.406798 8.651189
LeftShoulder -12.543482 24.013352 19.108681
LeftArm 27.977417 -6.887522 -49.780552
LeftForeArm 4.666674 -0.000000 14.614234
LeftHand -30.904481 -0.000000 -2.961663
LeftHandThumb1 -26.253704 0.000000 33.147579
RightShoulder -18.455934 10.699180 -31.624130
RightArm -2.319280 -2.777834 52.461410
RightForeArm -25.481871 0.000000 16.817434
RightHand -9.032975 -0.000000 7.094834
RightHandThumb1 -24.326973 -0.000000 -32.862282
LeftUpLeg -18.704096 1.717824 1.324324
LeftLeg 27.418514 -0.000000 -0.000000
LeftFoot -20.560166 10.639123 -26.703077
LeftToeBase -1.279616 -0.000000 0.000000
RightUpLeg -12.559542 -2.260687 -1.461063
RightLeg 10.531288 -0.000000 -0.000000
RightFoot -12.851791 -1.343280 -2.975167
RightToeBase -0.678613 -0.000000 0.000000
